<?xml version="1.0" encoding="UTF-8"?>
<svg version="1.1" xmlns="http://www.w3.org/2000/svg" width="1624" height="1207">
    <path
        d="M0 0 C4.18275224 0.01140269 8.36524999 0.00458853 12.54799366 -0.0068779 C41.49028723 -0.0740654 70.34225743 1.00536327 99.1418457 4.01074219 C99.95032959 4.0934436 100.75881348 4.17614502 101.59179688 4.26135254 C182.37358183 12.59573468 262.05648485 32.05666432 335.4543457 67.26074219 C336.99952881 67.99647461 336.99952881 67.99647461 338.57592773 68.74707031 C368.27035668 82.96118486 396.46339977 100.02129409 422.4543457 120.26074219 C423.61311234 121.15148106 424.77197175 122.04209926 425.9309082 122.93261719 C432.15344236 127.74101492 438.19654403 132.65535446 443.9777832 137.99511719 C445.32414895 139.22680825 446.67796295 140.45128236 448.06689453 141.63476562 C454.2273287 146.89420308 459.94816418 152.56844154 465.671875 158.29296875 C467.37977626 159.99868816 469.09552615 161.69623246 470.81176758 163.39355469 C477.4926054 170.0406567 483.60421828 176.86230221 489.4543457 184.26074219 C490.32888804 185.30049733 491.20899755 186.3356452 492.09887695 187.36230469 C554.62438218 260.1397396 580.64974732 359.89473576 573.7668457 454.38574219 C567.14283396 532.4433454 541.36313287 608.43227414 502.4543457 676.26074219 C501.88296875 677.26105469 501.3115918 678.26136719 500.72290039 679.29199219 C480.80499351 714.07031474 480.80499351 714.07031474 474.4543457 718.26074219 C470.95761608 718.20045375 468.5560906 717.95851396 465.5793457 716.07324219 C463.6673616 712.99282336 463.1361934 709.9036556 463.83041382 706.3187561 C464.48823375 704.04042137 465.22629456 701.80410684 465.99731445 699.56152344 C466.27688995 698.71059616 466.55646545 697.85966888 466.84451294 696.98295593 C467.44985011 695.1414549 468.06060883 693.30172908 468.67617798 691.46362305 C470.33202418 686.50743983 471.93686393 681.53487235 473.5402832 676.56152344 C473.87044937 675.53866241 474.20061554 674.51580139 474.54078674 673.46194458 C480.06937815 656.22435587 484.7983037 638.75080658 489.4543457 621.26074219 C489.66532898 620.47008362 489.87631226 619.67942505 490.09368896 618.86480713 C498.80454607 586.14416387 506.14667002 552.86683298 510.4543457 519.26074219 C510.60242676 518.13748535 510.75050781 517.01422852 510.90307617 515.85693359 C515.75121649 477.9642029 514.27914195 442.21279011 504.4543457 405.26074219 C504.10847412 403.95024902 504.10847412 403.95024902 503.75561523 402.61328125 C489.74496304 350.49813197 460.71688941 303.31955128 424.62231445 263.64746094 C423.17649294 262.05575473 421.74153819 260.45410992 420.31762695 258.84277344 C412.53625934 250.05555579 404.37181352 241.56222609 395.4230957 233.95214844 C393.17653063 232.02206377 391.00850666 230.01656079 388.8293457 228.01074219 C383.17700733 222.91238491 377.21977708 218.25231465 371.19506836 213.60742188 C369.5801436 212.35806353 367.97575878 211.09511346 366.37231445 209.83105469 C312.94665764 167.99581636 250.40716671 138.10175393 186.4543457 116.26074219 C185.82115417 116.0433136 185.18796265 115.82588501 184.5355835 115.60186768 C112.17659693 90.77215937 36.3251135 77.20717665 -39.8581543 71.51074219 C-40.64816833 71.45157623 -41.43818237 71.39241028 -42.25213623 71.33145142 C-47.68093199 70.93192934 -53.11177569 70.5832118 -58.5456543 70.26074219 C-59.3246106 70.21268433 -60.10356689 70.16462646 -60.90612793 70.1151123 C-79.64348745 68.99145963 -98.40670377 69.01524141 -117.1706543 69.01074219 C-118.0173317 69.01030033 -118.86400909 69.00985847 -119.73634338 69.00940323 C-149.76212689 69.00121475 -179.610878 69.72993451 -209.5456543 72.26074219 C-210.55472839 72.34559875 -211.56380249 72.43045532 -212.60345459 72.5178833 C-278.46879874 78.12812828 -345.34916197 87.37731202 -408.5456543 107.26074219 C-409.71547852 107.62651367 -410.88530273 107.99228516 -412.09057617 108.36914062 C-455.76252013 122.13968026 -497.5702559 140.98620917 -538.55230713 161.27514648 C-540.45351944 162.21518679 -542.35635906 163.15182319 -544.26000977 164.08691406 C-558.23714324 170.95752619 -572.03124121 178.08739892 -585.64526367 185.65234375 C-588.7474343 187.37263837 -591.8570823 189.07889889 -594.9675293 190.78417969 C-609.98986767 199.04406117 -624.78671257 207.61628277 -639.48901367 216.4296875 C-642.26996366 218.09559205 -645.05518929 219.75399724 -647.8425293 221.40917969 C-656.95877834 226.83385074 -665.99067377 232.38323913 -674.9831543 238.01074219 C-676.5146814 238.967146 -676.5146814 238.967146 -678.07714844 239.94287109 C-682.31966715 242.5960485 -686.55552328 245.25469488 -690.74487305 247.99121094 C-691.33921143 248.37374023 -691.9335498 248.75626953 -692.54589844 249.15039062 C-694.02344259 250.10330115 -695.49210163 251.06995324 -696.9597168 252.03808594 C-700.07318808 253.51016526 -702.13902869 253.64913494 -705.5456543 253.26074219 C-708.83425744 250.83003552 -710.31321845 249.35319069 -711.1706543 245.32324219 C-709.84710626 238.83785683 -704.58201148 235.32087526 -699.3671875 231.82250977 C-698.58045654 231.30712646 -697.79372559 230.79174316 -696.9831543 230.26074219 C-695.27657047 229.12009277 -693.57086991 227.97812095 -691.8659668 226.83496094 C-690.9884375 226.2489209 -690.1109082 225.66288086 -689.20678711 225.05908203 C-685.72880389 222.70873117 -682.30424212 220.28705428 -678.87963867 217.85986328 C-670.29332818 211.7759535 -661.58089738 206.02209563 -652.60571289 200.53222656 C-649.61415044 198.68581068 -646.65160063 196.7946662 -643.6862793 194.90649414 C-616.33608917 177.50817568 -588.20550979 161.396059 -559.5456543 146.26074219 C-558.47798828 145.69532715 -557.41032227 145.12991211 -556.31030273 144.54736328 C-481.8180083 105.19146142 -403.29930937 73.29561237 -91.4831543 4.01074219 C-90.28508148 3.89504379 -90.28508148 3.89504379 -89.06280518 3.77700806 C-59.41863555 0.95410172 -29.76567907 -0.08171044 0 0 Z "
        fill="#031455" transform="translate(1049.545654296875,-0.2607421875)" />
    <path
        d="M0 0 C3.4375 0.5625 3.4375 0.5625 5.8125 2.25 C9.45839781 7.43839304 8.2010458 12.47524324 7.1796875 18.34765625 C6.88270581 20.15547334 6.58600651 21.96333683 6.28955078 23.77124023 C6.05029877 25.20148026 6.05029877 25.20148026 5.80621338 26.66061401 C2.93639063 43.89179047 0.49665615 61.13910859 -1.4375 78.5 C-1.59173431 79.86996628 -1.59173431 79.86996628 -1.74908447 81.26760864 C-2.39401204 87.02877483 -3.00090327 92.79261425 -3.5625 98.5625 C-3.6752124 99.71717773 -3.7879248 100.87185547 -3.90405273 102.06152344 C-4.7880595 112.57429387 -4.81907108 123.11909187 -4.85766602 133.66259766 C-4.8691276 135.82802902 -4.88948567 137.99343345 -4.91918945 140.15869141 C-5.20565133 161.16482879 -2.5157169 181.11734129 3.0625 201.375 C3.40458496 202.62724365 3.74666992 203.8794873 4.09912109 205.16967773 C19.0034241 258.73937202 47.99706739 307.22741206 85.28125 348.1875 C86.68960078 349.73872694 88.08605835 351.30085873 89.46875 352.875 C98.09278585 362.65748843 107.27159619 372.30355529 117.25390625 380.71875 C119.07710006 382.25819092 120.86775273 383.82267482 122.65234375 385.40625 C141.89649042 402.41727867 162.83752476 417.67716924 184.4375 431.5625 C185.17178223 432.0359082 185.90606445 432.50931641 186.66259766 432.99707031 C227.59130336 459.2314634 271.7865335 480.46671519 317.52130127 496.87493896 C318.82399685 497.34236581 320.12618497 497.81120881 321.42791748 498.28131104 C399.92492928 526.62608442 482.42148156 542.18824757 581.4375 549.5625 C582.12618164 549.60380035 582.81486328 549.64510071 583.52441406 549.68765259 C602.48248411 550.81696696 621.4536548 550.76340204 640.4375 550.75 C641.28369526 550.74973312 642.12989052 550.74946625 643.00172806 550.74919128 C667.09301042 550.73965163 691.13256142 550.70507764 715.15936279 548.74609375 C717.63188842 548.54683435 720.10512423 548.35878247 722.57861328 548.171875 C809.04298676 541.573813 894.50502459 526.98651185 992.4375 487.5625 C993.07929199 487.29564392 993.72108398 487.02878784 994.38232422 486.75384521 C1032.91734368 470.70629306 1070.90011127 452.53960778 1107.421875 432.3203125 C1112.20036544 429.67763466 1117.03016461 427.14333995 1121.875 424.625 C1132.88225208 418.87535668 1143.66344158 412.73542176 1154.4375 406.5625 C1155.49453125 405.95712402 1156.5515625 405.35174805 1157.640625 404.72802734 C1170.40074063 397.41118473 1183.11562824 390.02170371 1195.76196289 382.50976562 C1196.61395264 382.00380859 1197.46594238 381.49785156 1198.34375 380.9765625 C1199.08947266 380.5326416 1199.83519531 380.0887207 1200.60351562 379.63134766 C1204.1180742 377.58305992 1206.31822922 377.15057292 1210.4375 377.5625 C1213.65733624 379.73806503 1214.34807891 381.25511502 1215.4375 385 C1215.4375 389.46867841 1214.44684657 390.34927565 1211.4375 393.5625 C1209.36315744 395.1419973 1207.33091425 396.58908364 1205.15234375 398.00390625 C1204.54398178 398.4080777 1203.93561981 398.81224915 1203.30882263 399.22866821 C1201.33625539 400.53580183 1199.35603766 401.8307471 1197.375 403.125 C1195.99856738 404.03186294 1194.62242993 404.93917402 1193.24658203 405.84692383 C1183.06099533 412.55368463 1172.82310151 419.1691081 1162.4375 425.5625 C1160.89642578 426.51455322 1160.89642578 426.51455322 1159.32421875 427.48583984 C1142.92108705 437.6006314 1126.33044561 447.28184257 1109.4375 456.5625 C1107.62743971 457.56480724 1105.81753918 458.56740304 1104.0078125 459.5703125 C1031.89486191 499.38301537 955.83628481 532.25320459 739.4375 593.5625 C738.54518677 593.74341187 737.65287354 593.92432373 736.73352051 594.11071777 C684.23203764 604.72605983 630.93024042 611.65298378 577.4375 614.5625 C576.71305695 614.60453552 575.98861389 614.64657104 575.24221802 614.68988037 C557.71146893 615.69156029 540.17880823 615.80776049 522.625 615.8125 C521.87150898 615.81294186 521.11801796 615.81338371 520.34169388 615.81383896 C437.5465419 615.83917973 354.65019251 606.17902187 196.04589844 550.78662109 C193.69889587 549.68517305 191.34233947 548.61113517 188.9765625 547.55078125 C176.69559377 542.00514277 165.07198156 535.34299164 153.4375 528.5625 C152.53999023 528.04075195 151.64248047 527.51900391 150.71777344 526.98144531 C129.39647056 514.53676649 109.35809552 500.43049944 90.4375 484.5625 C89.4475 483.74652344 88.4575 482.93054687 87.4375 482.08984375 C73.34967478 470.41071592 59.40554702 457.87822007 47.49609375 443.9609375 C45.85905046 442.05364228 44.20438403 440.167944 42.53515625 438.2890625 C-17.1762669 370.77541913 -48.08109293 283.15973123 -47.9375 193.5 C-47.93728851 192.27526978 -47.93707703 191.05053955 -47.93685913 189.78869629 C-47.90138849 169.11754783 -46.7416137 148.97988098 -43.5625 128.5625 C-43.38058105 127.34433594 -43.19866211 126.12617187 -43.01123047 124.87109375 C-37.6015941 89.32896094 -27.408529 54.67488278 -14.8125 21.0625 C-14.53814117 20.31913391 -14.26378235 19.57576782 -13.98110962 18.80987549 C-13.19487075 16.69022337 -12.38974316 14.57879507 -11.578125 12.46875 C-11.11696289 11.25509766 -10.65580078 10.04144531 -10.18066406 8.79101562 C-7.74410024 3.92965172 -5.49083573 0.86697406 0 0 Z "
        fill="#031455" transform="translate(47.5625,591.4375)" />

    <path
        d="M0 0 C139.55832515 0 139.55832515 0 164.98828125 23.92578125 C182.51846558 42.00059267 191.47790682 65.36070634 191.21484375 90.41015625 C189.72796001 115.25463183 178.33206442 134.71563561 160.4375 151.375 C155.99785865 155.21947204 151.13210352 158.17145025 146 161 C146.58216633 164.83291486 147.68920107 167.57153606 149.66796875 170.89453125 C150.22411865 171.83731934 150.78026855 172.78010742 151.35327148 173.75146484 C151.95856689 174.76160645 152.5638623 175.77174805 153.1875 176.8125 C154.47412225 178.98818433 155.76057601 181.1639683 157.046875 183.33984375 C157.70623047 184.44956543 158.36558594 185.55928711 159.04492188 186.70263672 C162.03474956 191.74517078 164.98664929 196.80959084 167.9375 201.875 C168.50702393 202.85106201 169.07654785 203.82712402 169.66333008 204.83276367 C175.93799712 215.59221719 182.1627076 226.38042728 188.37451172 237.17626953 C189.82175919 239.69036749 191.27175921 242.2028511 192.72265625 244.71484375 C193.4611125 245.99729508 194.19941203 247.27983668 194.9375 248.5625 C195.54464844 249.61566406 196.15179688 250.66882813 196.77734375 251.75390625 C198 254 198 254 198 255 C189.81169711 255.34886369 181.62653316 255.61466941 173.43261814 255.77718258 C169.62663039 255.85522429 165.82575065 255.96082858 162.02270508 256.1315918 C137.64107117 257.19717865 137.64107117 257.19717865 131.83544922 253.69381714 C128.5345173 250.35042287 127.04679341 246.45262418 125.68295288 242.02304077 C124.61554332 238.8611637 122.88302662 236.16195602 121.1484375 233.32421875 C119.88913588 231.1128265 118.63135638 228.90056686 117.375 226.6875 C115.98925044 224.25335361 114.60208681 221.82001422 113.21484375 219.38671875 C112.6925695 218.47018021 112.6925695 218.47018021 112.15974426 217.53512573 C108.44027383 211.01113423 104.69162955 204.50409342 100.9375 198 C100.04587158 196.45445435 100.04587158 196.45445435 99.13623047 194.87768555 C98.56404785 193.88679932 97.99186523 192.89591309 97.40234375 191.875 C96.8491748 190.9159375 96.29600586 189.956875 95.72607422 188.96875 C94.49898581 186.85822737 93.25972904 184.75475914 92.01220703 182.65625 C91.37009277 181.5734375 90.72797852 180.490625 90.06640625 179.375 C89.47931885 178.39273438 88.89223145 177.41046875 88.28735352 176.3984375 C87 174 87 174 87 172 C78.09 172 69.18 172 60 172 C60 199.39 60 226.78 60 255 C40.2 255 20.4 255 0 255 C0 170.85 0 86.7 0 0 Z M60 55 C60 76.45 60 97.9 60 120 C67.363125 120.0825 74.72625 120.165 82.3125 120.25 C84.61387939 120.28641602 86.91525879 120.32283203 89.28637695 120.36035156 C91.14533562 120.37205257 93.00430467 120.38224103 94.86328125 120.390625 C95.80022827 120.41108887 96.73717529 120.43155273 97.70251465 120.45263672 C106.8865232 120.45739712 115.71215582 118.16522576 122.50390625 111.69921875 C130.01123918 103.17261347 131.59862891 94.12781851 131.30859375 82.94921875 C130.60239283 73.91163484 126.78938351 66.97890916 120 61 C113.96736689 56.840277 108.56951065 54.8661997 101.2097168 54.88647461 C100.27639526 54.88659546 99.34307373 54.88671631 98.38146973 54.88684082 C97.4138269 54.89195679 96.44618408 54.89707275 95.44921875 54.90234375 C94.54997681 54.90335083 93.65073486 54.90435791 92.72424316 54.90539551 C89.37864906 54.91061089 86.03307319 54.92457213 82.6875 54.9375 C71.4571875 54.9684375 71.4571875 54.9684375 60 55 Z "
        fill="#031455" transform="translate(76,399)" />
    <path
        d="M0 0 C6.96704066 6.61137974 13.3900146 14.09268597 18.3762207 22.30859375 C18.3762207 23.29859375 18.3762207 24.28859375 18.3762207 25.30859375 C17.38332031 25.8802124 17.38332031 25.8802124 16.37036133 26.46337891 C0.34203259 35.69373271 -15.65743631 44.97130918 -31.6237793 54.30859375 C-34.27287288 51.70666 -36.49679806 49.16201224 -38.6237793 46.12109375 C-49.17620031 32.49928488 -64.98992805 26.12739435 -81.6003418 23.77734375 C-101.64927222 21.30054561 -122.35042768 26.16470698 -138.6237793 38.30859375 C-139.34436523 39.03949219 -140.06495117 39.77039063 -140.80737305 40.5234375 C-142.6237793 42.30859375 -142.6237793 42.30859375 -144.6237793 42.30859375 C-144.88803711 42.89125 -145.15229492 43.47390625 -145.42456055 44.07421875 C-146.66842029 46.39176849 -148.08340202 48.08161746 -149.8112793 50.05859375 C-163.71896055 67.74080227 -165.71194989 91.20201696 -163.34692383 112.84179688 C-160.72204417 130.34099462 -151.82541894 147.05313882 -137.9362793 158.05859375 C-125.94462503 166.59604823 -112.33660869 171.5126538 -97.6237793 172.30859375 C-96.67245117 172.36144531 -95.72112305 172.41429687 -94.7409668 172.46875 C-76.03821856 172.99720603 -58.11037694 167.68207487 -43.5925293 155.62109375 C-39.13002285 151.39345606 -35.87628263 146.49383205 -32.6237793 141.30859375 C-15.43697981 150.64324325 1.71061343 160.06534245 18.3762207 170.30859375 C16.66521357 179.67635778 7.65108955 187.64931852 1.3762207 194.30859375 C0.83610352 194.91316406 0.29598633 195.51773438 -0.26049805 196.140625 C-20.59454314 218.01124781 -53.48089826 229.71709422 -82.74487305 231.21875 C-84.16993164 231.26322266 -84.16993164 231.26322266 -85.6237793 231.30859375 C-86.46038086 231.34855469 -87.29698242 231.38851563 -88.15893555 231.4296875 C-123.52254625 232.35887047 -157.5877408 220.15468508 -183.6237793 196.30859375 C-184.43459961 195.56867188 -185.24541992 194.82875 -186.08081055 194.06640625 C-212.46395515 168.83839057 -223.97545198 133.62939552 -224.8737793 97.80859375 C-224.82250418 95.97408389 -224.73407747 94.14050255 -224.6237793 92.30859375 C-224.58800781 91.64021484 -224.55223633 90.97183594 -224.51538086 90.28320312 C-222.57795991 57.38947231 -210.78831915 28.58883968 -188.6237793 4.30859375 C-187.95862305 3.57253906 -187.2934668 2.83648437 -186.6081543 2.078125 C-137.68649575 -49.41294838 -50.54454097 -46.5019657 0 0 Z "
        fill="#031455" transform="translate(748.623779296875,428.69140625)" />
    <path
        d="M0 0 C6.96704066 6.61137974 13.3900146 14.09268597 18.3762207 22.30859375 C18.3762207 23.29859375 18.3762207 24.28859375 18.3762207 25.30859375 C17.38332031 25.8802124 17.38332031 25.8802124 16.37036133 26.46337891 C0.34203259 35.69373271 -15.65743631 44.97130918 -31.6237793 54.30859375 C-34.27287288 51.70666 -36.49679806 49.16201224 -38.6237793 46.12109375 C-49.17620031 32.49928488 -64.98992805 26.12739435 -81.6003418 23.77734375 C-101.64927222 21.30054561 -122.35042768 26.16470698 -138.6237793 38.30859375 C-139.34436523 39.03949219 -140.06495117 39.77039063 -140.80737305 40.5234375 C-142.6237793 42.30859375 -142.6237793 42.30859375 -144.6237793 42.30859375 C-144.88803711 42.89125 -145.15229492 43.47390625 -145.42456055 44.07421875 C-146.66842029 46.39176849 -148.08340202 48.08161746 -149.8112793 50.05859375 C-163.71896055 67.74080227 -165.71194989 91.20201696 -163.34692383 112.84179688 C-160.72204417 130.34099462 -151.82541894 147.05313882 -137.9362793 158.05859375 C-125.94462503 166.59604823 -112.33660869 171.5126538 -97.6237793 172.30859375 C-96.67245117 172.36144531 -95.72112305 172.41429687 -94.7409668 172.46875 C-76.03821856 172.99720603 -58.11037694 167.68207487 -43.5925293 155.62109375 C-39.13002285 151.39345606 -35.87628263 146.49383205 -32.6237793 141.30859375 C-15.43697981 150.64324325 1.71061343 160.06534245 18.3762207 170.30859375 C16.66521357 179.67635778 7.65108955 187.64931852 1.3762207 194.30859375 C0.83610352 194.91316406 0.29598633 195.51773438 -0.26049805 196.140625 C-20.59454314 218.01124781 -53.48089826 229.71709422 -82.74487305 231.21875 C-84.16993164 231.26322266 -84.16993164 231.26322266 -85.6237793 231.30859375 C-86.46038086 231.34855469 -87.29698242 231.38851563 -88.15893555 231.4296875 C-123.52254625 232.35887047 -157.5877408 220.15468508 -183.6237793 196.30859375 C-184.43459961 195.56867188 -185.24541992 194.82875 -186.08081055 194.06640625 C-212.46395515 168.83839057 -223.97545198 133.62939552 -224.8737793 97.80859375 C-224.82250418 95.97408389 -224.73407747 94.14050255 -224.6237793 92.30859375 C-224.58800781 91.64021484 -224.55223633 90.97183594 -224.51538086 90.28320312 C-222.57795991 57.38947231 -210.78831915 28.58883968 -188.6237793 4.30859375 C-187.95862305 3.57253906 -187.2934668 2.83648437 -186.6081543 2.078125 C-137.68649575 -49.41294838 -50.54454097 -46.5019657 0 0 Z "
        fill="#031455" transform="translate(499.623779296875,428.69140625)" />
    <path
        d="M0 0 C44 0 44 0 54 5 C60.26804276 12.05154811 62.45516021 17.81263048 62.25 27.25 C61.62244924 34.1530584 59.18783289 38.51322561 54 43 C54.68835937 43.52787109 54.68835937 43.52787109 55.390625 44.06640625 C60.5110265 48.18639317 63.77722943 52.02599565 65.75 58.4375 C66.64280658 67.5887674 65.76242276 74.94980657 59.875 82.3125 C55.99779728 86.91306143 50.29685809 89.55904283 44.38006592 90.35041809 C41.52527927 90.45938982 38.69599083 90.45095694 35.83984375 90.390625 C34.92497192 90.38659668 34.0101001 90.38256836 33.06750488 90.37841797 C29.69062891 90.35768633 26.31404164 90.30184269 22.9375 90.25 C15.368125 90.1675 7.79875 90.085 0 90 C0 60.3 0 30.6 0 0 Z M13 11 C13 20.24 13 29.48 13 39 C16.650625 39.04125 20.30125 39.0825 24.0625 39.125 C25.76805054 39.15231201 25.76805054 39.15231201 27.50805664 39.18017578 C37.4197027 39.24911223 37.4197027 39.24911223 45.875 34.5625 C48.93243706 30.8755906 49.34625736 27.81092935 49.28515625 23.0625 C48.69700914 18.80850447 46.09651515 16.02577224 43.0625 13.1875 C39.11378785 10.91399906 34.95053293 10.87737132 30.48046875 10.90234375 C29.55903076 10.90484131 28.63759277 10.90733887 27.68823242 10.90991211 C26.53299072 10.91901611 25.37774902 10.92812012 24.1875 10.9375 C20.495625 10.958125 16.80375 10.97875 13 11 Z M13 50 C13 59.57 13 69.14 13 79 C17.104375 79.061875 21.20875 79.12375 25.4375 79.1875 C27.35067017 79.22846802 27.35067017 79.22846802 29.30249023 79.27026367 C35.9247663 79.31828486 42.00981041 79.08396626 48 76 C51.52202898 72.47797102 52.83469355 69.71918708 53.3125 64.75 C52.91108268 59.93299219 51.7987508 57.9333795 49 54 C44.00187434 50.15528796 38.96775925 49.87208 32.82421875 49.90234375 C31.78096436 49.90484131 30.73770996 49.90733887 29.6628418 49.90991211 C27.69504761 49.92356812 27.69504761 49.92356812 25.6875 49.9375 C19.4071875 49.9684375 19.4071875 49.9684375 13 50 Z "
        fill="#031455" transform="translate(1191,410)" />
    <path
        d="M0 0 C4.29 0 8.58 0 13 0 C13 26.07 13 52.14 13 79 C25.87 79 38.74 79 52 79 C52 82.63 52 86.26 52 90 C34.84 90 17.68 90 0 90 C0 60.3 0 30.6 0 0 Z "
        fill="#031455" transform="translate(1043,410)" />

    <!-- A -->
    <path
        d="M0 0 C1.39456452 0.00667256 2.78911118 0.01863093 4.18359375 0.03515625 C5.2499707 0.04192383 5.2499707 0.04192383 6.33789062 0.04882812 C8.09899388 0.06064761 9.86005411 0.07858362 11.62109375 0.09765625 C12.05228516 1.26594971 12.48347656 2.43424316 12.92773438 3.63793945 C14.99148754 9.22893693 17.05624028 14.81956506 19.12109375 20.41015625 C19.68617142 21.94039932 19.68617142 21.94039932 20.26266479 23.5015564 C24.59695901 35.23735914 28.94062128 46.96954672 33.3125 58.69140625 C33.68341766 59.68625534 34.05433533 60.68110443 34.43649292 61.70610046 C36.21975848 66.48825216 38.00499301 71.26965625 39.79296875 76.05004883 C40.43494993 77.77032486 41.07687993 79.49062 41.71875 81.2109375 C42.0147963 82.00040771 42.31084259 82.78987793 42.61585999 83.60327148 C44.62109375 88.98426102 44.62109375 88.98426102 44.62109375 90.09765625 C40.00109375 90.09765625 35.38109375 90.09765625 30.62109375 90.09765625 C27.68112615 83.28931022 25.43452883 77.35139657 23.62109375 70.09765625 C10.42109375 70.09765625 -2.77890625 70.09765625 -16.37890625 70.09765625 C-17.03890625 73.06765625 -17.69890625 76.03765625 -18.37890625 79.09765625 C-19.59178935 82.82041059 -20.9880004 86.4349375 -22.37890625 90.09765625 C-26.99890625 90.09765625 -31.61890625 90.09765625 -36.37890625 90.09765625 C-35.64478743 85.69294331 -34.91713491 82.45098908 -33.38867188 78.38134766 C-32.77167419 76.72638779 -32.77167419 76.72638779 -32.14221191 75.03799438 C-31.69438354 73.85369843 -31.24655518 72.66940247 -30.78515625 71.44921875 C-30.31442647 70.19267227 -29.84418072 68.93594437 -29.37438965 67.67904663 C-28.13322944 64.36235509 -26.88555845 61.04815019 -25.63647461 57.73443604 C-24.40091485 54.45331413 -23.17136775 51.16994237 -21.94140625 47.88671875 C-20.01986017 42.7591421 -18.09349743 37.63340191 -16.1640625 32.50878906 C-14.32865771 27.63155994 -12.50323199 22.75079749 -10.6875 17.86621094 C-10.0616803 16.18584244 -10.0616803 16.18584244 -9.42321777 14.4715271 C-8.64050401 12.36868521 -7.85988413 10.26506239 -7.08166504 8.16055298 C-6.73825073 7.23922577 -6.39483643 6.31789856 -6.04101562 5.36865234 C-5.74239624 4.56334076 -5.44377686 3.75802917 -5.1361084 2.92831421 C-3.83204766 -0.22446234 -3.72380496 0.10762442 0 0 Z M3.62109375 17.09765625 C-0.14508205 25.86275879 -3.50119612 34.73335305 -6.69140625 43.72265625 C-7.1501795 45.00007584 -7.60916294 46.27741997 -8.06835938 47.5546875 C-8.49697266 48.75738281 -8.92558594 49.96007812 -9.3671875 51.19921875 C-9.75430908 52.28541504 -10.14143066 53.37161133 -10.5402832 54.49072266 C-11.48098434 56.95855803 -11.48098434 56.95855803 -11.37890625 59.09765625 C-1.47890625 59.09765625 8.42109375 59.09765625 18.62109375 59.09765625 C17.28893157 53.10292646 15.921671 47.68050998 13.80078125 42 C13.40549728 40.92039757 13.40549728 40.92039757 13.00222778 39.81898499 C12.17218153 37.55570541 11.33430335 35.29542347 10.49609375 33.03515625 C9.92655898 31.48652086 9.35754405 29.93769419 8.7890625 28.38867188 C7.40572742 24.62276631 6.01536824 20.85952464 4.62109375 17.09765625 C4.29109375 17.09765625 3.96109375 17.09765625 3.62109375 17.09765625 Z "
        fill="#031455" transform="translate(1136.37890625,409.90234375)" />
    <!-- O -->
    <path
        d="M0 0 C10.52699052 7.85346912 17.40853402 17.80358449 19.8125 30.8125 C21.34238661 45.46800315 19.25386582 58.57931792 9.9375 70.37890625 C2.7746516 78.5819477 -7.13926002 86.08166511 -18.37890625 86.98950195 C-33.10347757 87.37004843 -45.71615874 87.18220932 -57.1875 76.8125 C-57.87714844 76.20277344 -58.56679688 75.59304688 -59.27734375 74.96484375 C-69.28472662 65.59107544 -73.93402859 53.75933796 -74.4375 40.1875 C-74.27023218 26.4715387 -69.32900981 14.84768083 -60.1875 4.8125 C-43.60032184 -10.17911794 -18.67237116 -12.09204759 0 0 Z M-54.1875 17.8125 C-60.01390337 27.24980461 -62.71914178 36.32357014 -60.7265625 47.3671875 C-57.7344267 58.66690035 -51.2261087 65.89126025 -41.39453125 71.91015625 C-34.09665278 75.37382925 -23.9342792 74.859034 -16.2109375 73.15625 C-6.5978181 69.70386037 -0.01641335 62.62844379 4.8125 53.8125 C8.30843993 45.70827561 7.97227822 35.4117414 5.375 27.0625 C1.4687518 17.73702015 -5.86819153 10.64357327 -15.1875 6.8125 C-29.26573837 2.06841092 -44.77566967 6.69432639 -54.1875 17.8125 Z "
        fill="#031455" transform="translate(1009.1875,415.1875)" />
    <!-- C -->
    <path
        d="M0 0 C7.03708457 4.60835627 12.39577491 9.4453228 15.3359375 17.421875 C13.71423371 18.42721167 12.08846513 19.42599407 10.4609375 20.421875 C9.55601562 20.97875 8.65109375 21.535625 7.71875 22.109375 C5.3359375 23.421875 5.3359375 23.421875 3.3359375 23.421875 C2.45428891 22.24832924 1.63084323 21.0308275 0.8359375 19.796875 C-3.27040146 14.0885569 -9.03923371 10.63015126 -15.6640625 8.421875 C-27.49526748 7.65164714 -37.16845008 7.94353452 -46.9140625 15.421875 C-53.33541503 21.4394508 -57.10683593 30.04591717 -57.8671875 38.74609375 C-58.06997555 48.96999129 -55.3318838 57.56498399 -48.6640625 65.421875 C-40.81061721 72.86882726 -32.78665087 74.99257627 -22.17089844 74.98217773 C-14.16223232 74.68137041 -7.55326783 72.03434841 -1.6328125 66.53515625 C0.33601507 64.32022523 2.00784909 62.07805183 3.3359375 59.421875 C7.64358565 60.98829251 11.39765214 63.10523656 15.3359375 65.421875 C11.98990864 74.86363961 4.82958243 80.20467795 -3.63671875 85.01171875 C-14.65876403 90.14585855 -29.65011417 90.37838265 -41.2890625 86.921875 C-52.56061954 82.32975917 -61.96750466 74.16528794 -67.23046875 63.140625 C-72.67900715 49.60465497 -73.60091042 35.50781002 -67.9140625 21.859375 C-62.10188914 9.74355774 -54.24064601 1.48665297 -41.6640625 -3.578125 C-28.33346778 -8.26273597 -12.09173662 -7.16284691 0 0 Z "
        fill="#031455" transform="translate(912.6640625,413.578125)" />


    <!-- S -->
    <path
        d="M0 0 C6.37490512 3.73122047 11.33073407 8.6885726 14.3125 15.5 C14.375 17.5 14.375 17.5 13.3125 19.5 C10.063311 21.92650431 7.41151744 23.5 3.3125 23.5 C1.84765625 21.85546875 1.84765625 21.85546875 0.375 19.6875 C-2.43327375 15.57618723 -4.90163798 13.09528734 -9.6875 11.5 C-18.35425177 10.60857632 -18.35425177 10.60857632 -26.375 13.25 C-29.8322801 16.6138401 -30.61483807 18.14364389 -30.875 23 C-30.80352593 26.89243062 -30.80352593 26.89243062 -29.6875 30.5 C-28.04149256 31.21615762 -26.37000876 31.87439111 -24.6875 32.5 C-21.902847 33.67086984 -19.12099945 34.84818874 -16.33984375 36.02734375 C-13.65303354 37.11068862 -10.98581816 38.11289709 -8.25390625 39.06640625 C0.87772971 42.30552375 9.23455547 45.48199729 15.3125 53.5 C18.27758966 60.51267238 18.54623371 68.68755587 16.125 75.9375 C14.23736371 79.64768167 12.45783524 81.80399837 9.3125 84.5 C8.1678125 85.551875 8.1678125 85.551875 7 86.625 C0.30825403 91.29365998 -6.12358344 92.02968834 -14.0625 91.9375 C-14.99425049 91.92775146 -15.92600098 91.91800293 -16.88598633 91.90795898 C-27.98116035 91.62072104 -34.47655537 88.5808385 -42.54296875 80.8828125 C-45.53136292 77.56237453 -47.16633149 74.70132255 -48.6875 70.5 C-47.6875 67.5 -47.6875 67.5 -45.40234375 66.11328125 C-44.48582031 65.68402344 -43.56929687 65.25476563 -42.625 64.8125 C-41.70589844 64.37550781 -40.78679688 63.93851563 -39.83984375 63.48828125 C-39.12957031 63.16214844 -38.41929687 62.83601562 -37.6875 62.5 C-37.31238281 63.10328125 -36.93726563 63.7065625 -36.55078125 64.328125 C-32.52687476 70.61231146 -28.98784077 75.12010899 -21.6875 77.5 C-19.0106428 77.74030242 -16.48658265 77.88121735 -13.8125 77.875 C-13.10013184 77.87338867 -12.38776367 77.87177734 -11.65380859 77.87011719 C-6.11274236 77.74009907 -2.88087458 77.09432107 1.3125 73.5 C3.71769097 70.57194143 3.81047154 67.19523151 3.671875 63.453125 C3.00601602 59.83432619 1.23713411 58.62179338 -1.6875 56.5 C-7.94626255 53.0515226 -14.63755903 50.79971513 -21.375 48.5 C-30.25417942 45.44560105 -37.13361171 42.34078347 -42.6875 34.5 C-45.81162491 27.99784603 -45.91305761 20.5049472 -43.8125 13.640625 C-40.56024837 6.57981554 -36.19189562 1.85506125 -29.00390625 -1.125 C-19.93226044 -4.3668884 -8.7150515 -4.03332144 0 0 Z "
        fill="#031455" transform="translate(889.6875,564.5)" />
    <!-- O -->
    <path
        d="M0 0 C10.52699052 7.85346912 17.40853402 17.80358449 19.8125 30.8125 C21.34238661 45.46800315 19.25386582 58.57931792 9.9375 70.37890625 C2.7746516 78.5819477 -7.13926002 86.08166511 -18.37890625 86.98950195 C-33.10347757 87.37004843 -45.71615874 87.18220932 -57.1875 76.8125 C-57.87714844 76.20277344 -58.56679688 75.59304688 -59.27734375 74.96484375 C-69.28472662 65.59107544 -73.93402859 53.75933796 -74.4375 40.1875 C-74.27023218 26.4715387 -69.32900981 14.84768083 -60.1875 4.8125 C-43.60032184 -10.17911794 -18.67237116 -12.09204759 0 0 Z M-54.1875 17.8125 C-60.01390337 27.24980461 -62.71914178 36.32357014 -60.7265625 47.3671875 C-57.7344267 58.66690035 -51.2261087 65.89126025 -41.39453125 71.91015625 C-34.09665278 75.37382925 -23.9342792 74.859034 -16.2109375 73.15625 C-6.5978181 69.70386037 -0.01641335 62.62844379 4.8125 53.8125 C8.30843993 45.70827561 7.97227822 35.4117414 5.375 27.0625 C1.4687518 17.73702015 -5.86819153 10.64357327 -15.1875 6.8125 C-29.26573837 2.06841092 -44.77566967 6.69432639 -54.1875 17.8125 Z "
        fill="#031455" transform="translate(989.1875,569.1875)" />
    <!-- L -->
    <path
        d="M0 0 C4.29 0 8.58 0 13 0 C13 26.07 13 52.14 13 79 C25.87 79 38.74 79 52 79 C52 82.63 52 86.26 52 90 C34.84 90 17.68 90 0 90 C0 60.3 0 30.6 0 0 Z "
        fill="#031455" transform="translate(1022,564)" />
    <!-- U -->
    <path
        d="M0 0 C4.29 0 8.58 0 13 0 C13.01401855 2.89072266 13.01401855 2.89072266 13.02832031 5.83984375 C13.0639412 12.23021068 13.11779825 18.62022389 13.18390274 25.01034546 C13.22329528 28.88207616 13.25552363 32.75358224 13.27099609 36.62548828 C13.28621752 40.36700741 13.32075837 44.10790865 13.36830902 47.84915161 C13.38306672 49.27152108 13.39103778 50.69397879 13.39188385 52.11642456 C13.40139723 60.09576581 13.48589388 66.26057263 18 73 C25.34982953 78.84986432 32.99791564 78.8158139 42 78 C47.25284877 76.25686715 50.42018431 73.27686577 53.12617493 68.42869568 C55.11934739 62.88890345 54.6059751 56.70737049 54.609375 50.87890625 C54.62437181 49.4091562 54.6411021 47.93942291 54.65948486 46.4697113 C54.70300301 42.62121771 54.72312258 38.77295139 54.73822021 34.92425537 C54.75784778 30.98908129 54.79981122 27.05415066 54.83984375 23.11914062 C54.91497751 15.41279533 54.96330321 7.70664175 55 0 C59.29 0 63.58 0 68 0 C68.09070863 8.69337553 68.16394945 17.38643191 68.20724869 26.0801754 C68.22804004 30.11792085 68.25620073 34.1553231 68.30175781 38.19287109 C68.34552046 42.09623162 68.36920052 45.999264 68.37950897 49.9028511 C68.38684625 51.38507877 68.40117301 52.8672904 68.42292023 54.34937668 C68.58824696 66.09363826 67.2927795 75.41323691 59 84.2421875 C49.25985602 92.80286092 38.65111196 92.64044826 26.33691406 92.17480469 C18.87737935 91.61682027 13.12870332 88.10025736 7.7578125 83.06640625 C2.04949741 76.35596473 -0.12975624 69.03031977 -0.11352539 60.39550781 C-0.11367142 59.74143448 -0.11381744 59.08736115 -0.1139679 58.41346741 C-0.11327341 56.25998574 -0.10550283 54.10659148 -0.09765625 51.953125 C-0.09579042 50.45668586 -0.09436729 48.96024612 -0.09336853 47.46380615 C-0.08955635 43.53141585 -0.07973717 39.59906268 -0.06866455 35.66668701 C-0.05842249 31.65149437 -0.05386492 27.6362957 -0.04882812 23.62109375 C-0.03811372 15.74737693 -0.02052745 7.87369736 0 0 Z "
        fill="#031455" transform="translate(1085,564)" />
    <!-- T -->
    <path
        d="M0 0 C21.45 0 42.9 0 65 0 C65 3.63 65 7.26 65 11 C56.42 11 47.84 11 39 11 C39 37.07 39 63.14 39 90 C34.71 90 30.42 90 26 90 C26 63.93 26 37.86 26 11 C17.42 11 8.84 11 0 11 C0 7.37 0 3.74 0 0 Z "
        fill="#031455" transform="translate(1166,564)" />
    <!-- I -->
    <path
        d="M0 0 C10.52699052 7.85346912 17.40853402 17.80358449 19.8125 30.8125 C21.34238661 45.46800315 19.25386582 58.57931792 9.9375 70.37890625 C2.7746516 78.5819477 -7.13926002 86.08166511 -18.37890625 86.98950195 C-33.10347757 87.37004843 -45.71615874 87.18220932 -57.1875 76.8125 C-57.87714844 76.20277344 -58.56679687 75.59304688 -59.27734375 74.96484375 C-69.28472662 65.59107544 -73.93402859 53.75933796 -74.4375 40.1875 C-74.27023218 26.4715387 -69.32900981 14.84768083 -60.1875 4.8125 C-43.60032184 -10.17911794 -18.67237116 -12.09204759 0 0 Z M-54.1875 17.8125 C-60.01390337 27.24980461 -62.71914178 36.32357014 -60.7265625 47.3671875 C-57.7344267 58.66690035 -51.2261087 65.89126025 -41.39453125 71.91015625 C-34.09665278 75.37382925 -23.9342792 74.859034 -16.2109375 73.15625 C-6.5978181 69.70386037 -0.01641335 62.62844379 4.8125 53.8125 C8.30843993 45.70827561 7.97227822 35.4117414 5.375 27.0625 C1.4687518 17.73702015 -5.86819153 10.64357327 -15.1875 6.8125 C-29.26573837 2.06841092 -44.77566967 6.69432639 -54.1875 17.8125 Z "
        fill="#031455" transform="translate(1337.1875,569.1875)" />
    <!-- O -->
    <path
        d="M0 0 C4.29 0 8.58 0 13 0 C13 29.7 13 59.4 13 90 C8.71 90 4.42 90 0 90 C0 60.3 0 30.6 0 0 Z "
        fill="#031455" transform="translate(1237,564)" />
    <!-- N -->
    <path
        d="M0 0 C11 0 11 0 13.734375 2.2890625 C14.39953125 3.38992188 15.0646875 4.49078125 15.75 5.625 C16.57479552 6.92103479 17.40036889 8.21657476 18.2265625 9.51171875 C18.66516602 10.2289209 19.10376953 10.94612305 19.55566406 11.68505859 C22.26772025 16.03186671 25.22172481 20.21717862 28.125 24.4375 C29.4043492 26.31983464 30.68298027 28.20265754 31.9609375 30.0859375 C36.8496075 37.26609634 41.82292128 44.38705726 46.80908203 51.49975586 C47.44442871 52.40862549 48.07977539 53.31749512 48.734375 54.25390625 C49.29350586 55.05127197 49.85263672 55.8486377 50.42871094 56.67016602 C52.03875763 59.057468 53.51851476 61.53085793 55 64 C55.33 42.88 55.66 21.76 56 0 C60.29 0 64.58 0 69 0 C69 29.7 69 59.4 69 90 C57 90 57 90 54.25170898 87.95898438 C53.38267944 86.54069336 53.38267944 86.54069336 52.49609375 85.09375 C51.82400879 84.04759521 51.15192383 83.00144043 50.45947266 81.92358398 C49.79222168 80.79380127 49.1249707 79.66401855 48.4375 78.5 C47.71054394 77.34110616 46.9792181 76.18494248 46.24365234 75.03149414 C44.79216569 72.74616831 43.36141314 70.45001925 41.94775391 68.14111328 C39.46941968 64.14434114 36.82669874 60.2850129 34.125 56.4375 C33.27100435 55.19999854 32.41812382 53.96172672 31.56640625 52.72265625 C30.94403076 51.81990967 30.94403076 51.81990967 30.30908203 50.89892578 C27.89165432 47.39225798 25.47690602 43.88374865 23.0625 40.375 C22.61342285 39.72329834 22.1643457 39.07159668 21.70166016 38.40014648 C21.27546387 37.78083252 20.84926758 37.16151855 20.41015625 36.5234375 C20.04027588 35.98638184 19.67039551 35.44932617 19.28930664 34.89599609 C17.50790544 32.27634797 15.75726593 29.6358989 14 27 C13.67 47.79 13.34 68.58 13 90 C8.71 90 4.42 90 0 90 C0 60.3 0 30.6 0 0 Z "
        fill="#031455" transform="translate(1371,564)" />
    <!-- S -->
    <path
        d="M0 0 C6.37490512 3.73122047 11.33073407 8.6885726 14.3125 15.5 C14.375 17.5 14.375 17.5 13.3125 19.5 C10.063311 21.92650431 7.41151744 23.5 3.3125 23.5 C1.84765625 21.85546875 1.84765625 21.85546875 0.375 19.6875 C-2.43327375 15.57618723 -4.90163798 13.09528734 -9.6875 11.5 C-18.35425177 10.60857632 -18.35425177 10.60857632 -26.375 13.25 C-29.8322801 16.6138401 -30.61483807 18.14364389 -30.875 23 C-30.80352593 26.89243062 -30.80352593 26.89243062 -29.6875 30.5 C-28.04149256 31.21615762 -26.37000876 31.87439111 -24.6875 32.5 C-21.902847 33.67086984 -19.12099945 34.84818874 -16.33984375 36.02734375 C-13.65303354 37.11068862 -10.98581816 38.11289709 -8.25390625 39.06640625 C0.87772971 42.30552375 9.23455547 45.48199729 15.3125 53.5 C18.27758966 60.51267238 18.54623371 68.68755587 16.125 75.9375 C14.23736371 79.64768167 12.45783524 81.80399837 9.3125 84.5 C8.1678125 85.551875 8.1678125 85.551875 7 86.625 C0.30825403 91.29365998 -6.12358344 92.02968834 -14.0625 91.9375 C-14.99425049 91.92775146 -15.92600098 91.91800293 -16.88598633 91.90795898 C-27.98116035 91.62072104 -34.47655537 88.5808385 -42.54296875 80.8828125 C-45.53136292 77.56237453 -47.16633149 74.70132255 -48.6875 70.5 C-47.6875 67.5 -47.6875 67.5 -45.40234375 66.11328125 C-44.48582031 65.68402344 -43.56929687 65.25476563 -42.625 64.8125 C-41.70589844 64.37550781 -40.78679688 63.93851563 -39.83984375 63.48828125 C-39.12957031 63.16214844 -38.41929687 62.83601562 -37.6875 62.5 C-37.31238281 63.10328125 -36.93726563 63.7065625 -36.55078125 64.328125 C-32.52687476 70.61231146 -28.98784077 75.12010899 -21.6875 77.5 C-19.0106428 77.74030242 -16.48658265 77.88121735 -13.8125 77.875 C-13.10013184 77.87338867 -12.38776367 77.87177734 -11.65380859 77.87011719 C-6.11274236 77.74009907 -2.88087458 77.09432107 1.3125 73.5 C3.71769097 70.57194143 3.81047154 67.19523151 3.671875 63.453125 C3.00601602 59.83432619 1.23713411 58.62179338 -1.6875 56.5 C-7.94626255 53.0515226 -14.63755903 50.79971513 -21.375 48.5 C-30.25417942 45.44560105 -37.13361171 42.34078347 -42.6875 34.5 C-45.81162491 27.99784603 -45.91305761 20.5049472 -43.8125 13.640625 C-40.56024837 6.57981554 -36.19189562 1.85506125 -29.00390625 -1.125 C-19.93226044 -4.3668884 -8.7150515 -4.03332144 0 0 Z "
        fill="#031455" transform="translate(1500.6875,564.5)" />
</svg>